HIERARCHY
ROOT Hips
{
    OFFSET 0.000000 0.000000 0.000000
    CHANNELS 6 Xposition Yposition Zposition Zrotation Xrotation Yrotation
    JOINT Spine
    {
        OFFSET -0.000000 7.305679 0.000000
        CHANNELS 3 Zrotation Xrotation Yrotation
        JOINT Spine1
        {
            OFFSET -0.000000 20.356625 0.000000
            CHANNELS 3 Zrotation Xrotation Yrotation
            JOINT Neck
            {
                OFFSET -0.000000 22.138498 0.000000
                CHANNELS 3 Zrotation Xrotation Yrotation
                JOINT Head
                {
                    OFFSET -0.000000 13.809516 1.781873
                    CHANNELS 3 Zrotation Xrotation Yrotation
                    End Site
                    {
                        OFFSET -0.000000 17.818729 0.000000
                    }
                }
            }
            JOINT LeftShoulder
            {
                OFFSET 3.599131 17.989975 0.023592
                CHANNELS 3 Zrotation Xrotation Yrotation
                JOINT LeftArm
                {
                    OFFSET 12.560995 0.000000 0.000000
                    CHANNELS 3 Zrotation Xrotation Yrotation
                    JOINT LeftForeArm
                    {
                        OFFSET 22.903347 0.000000 0.000000
                        CHANNELS 3 Zrotation Xrotation Yrotation
                        JOINT LeftHand
                        {
                            OFFSET 21.865294 0.000000 0.000000
                            CHANNELS 3 Zrotation Xrotation Yrotation
                            JOINT LeftHandThumb1
                            {
                                OFFSET 1.853706 -2.106484 2.949078
                                CHANNELS 3 Zrotation Xrotation Yrotation
                                JOINT LeftHandThumb2
                                {
                                    OFFSET 2.049154 0.000000 1.336405
                                    CHANNELS 3 Zrotation Xrotation Yrotation
                                    JOINT LeftHandThumb3
                                    {
                                        OFFSET 2.672809 0.000000 0.000000
                                        CHANNELS 3 Zrotation Xrotation Yrotation
                                        End Site
                                        {
                                            OFFSET 2.381303 0.000000 0.000000
                                        }
                                    }
                                }
                            }
                            JOINT LeftHandIndex1
                            {
                                OFFSET 7.583345 0.000000 2.949078
                                CHANNELS 3 Zrotation Xrotation Yrotation
                                JOINT LeftHandIndex2
                                {
                                    OFFSET 4.454682 0.000000 0.000000
                                    CHANNELS 3 Zrotation Xrotation Yrotation
                                    JOINT LeftHandIndex3
                                    {
                                        OFFSET 2.227341 0.000000 0.000000
                                        CHANNELS 3 Zrotation Xrotation Yrotation
                                        End Site
                                        {
                                            OFFSET 1.984419 0.000000 0.000000
                                        }
                                    }
                                }
                            }
                            JOINT LeftHandMiddle1
                            {
                                OFFSET 7.583345 0.000000 0.977409
                                CHANNELS 3 Zrotation Xrotation Yrotation
                                JOINT LeftHandMiddle2
                                {
                                    OFFSET 4.900151 0.000000 0.000000
                                    CHANNELS 3 Zrotation Xrotation Yrotation
                                    JOINT LeftHandMiddle3
                                    {
                                        OFFSET 2.672809 0.000000 0.000000
                                        CHANNELS 3 Zrotation Xrotation Yrotation
                                        End Site
                                        {
                                            OFFSET 2.381303 0.000000 0.000000
                                        }
                                    }
                                }
                            }
                            JOINT LeftHandRing1
                            {
                                OFFSET 7.162047 0.000000 -0.977409
                                CHANNELS 3 Zrotation Xrotation Yrotation
                                JOINT LeftHandRing2
                                {
                                    OFFSET 4.454682 0.000000 0.000000
                                    CHANNELS 3 Zrotation Xrotation Yrotation
                                    JOINT LeftHandRing3
                                    {
                                        OFFSET 2.227341 0.000000 0.000000
                                        CHANNELS 3 Zrotation Xrotation Yrotation
                                        End Site
                                        {
                                            OFFSET 1.984419 0.000000 0.000000
                                        }
                                    }
                                }
                            }
                            JOINT LeftHandPinky1
                            {
                                OFFSET 6.740750 0.000000 -2.949078
                                CHANNELS 3 Zrotation Xrotation Yrotation
                                JOINT LeftHandPinky2
                                {
                                    OFFSET 3.563746 0.000000 0.000000
                                    CHANNELS 3 Zrotation Xrotation Yrotation
                                    JOINT LeftHandPinky3
                                    {
                                        OFFSET 1.781873 0.000000 0.000000
                                        CHANNELS 3 Zrotation Xrotation Yrotation
                                        End Site
                                        {
                                            OFFSET 1.587536 0.000000 0.000000
                                        }
                                    }
                                }
                            }
                        }
                    }
                }
            }
            JOINT RightShoulder
            {
                OFFSET -3.506995 17.989975 0.023592
                CHANNELS 3 Zrotation Xrotation Yrotation
                JOINT RightArm
                {
                    OFFSET -12.560995 0.000000 0.000000
                    CHANNELS 3 Zrotation Xrotation Yrotation
                    JOINT RightForeArm
                    {
                        OFFSET -22.903347 0.000000 0.000000
                        CHANNELS 3 Zrotation Xrotation Yrotation
                        JOINT RightHand
                        {
                            OFFSET -21.865294 0.000000 0.000000
                            CHANNELS 3 Zrotation Xrotation Yrotation
                            JOINT RightHandThumb1
                            {
                                OFFSET -1.853706 -2.106484 2.949078
                                CHANNELS 3 Zrotation Xrotation Yrotation
                                JOINT RightHandThumb2
                                {
                                    OFFSET -2.049154 0.000000 1.336405
                                    CHANNELS 3 Zrotation Xrotation Yrotation
                                    JOINT RightHandThumb3
                                    {
                                        OFFSET -2.672809 0.000000 0.000000
                                        CHANNELS 3 Zrotation Xrotation Yrotation
                                        End Site
                                        {
                                            OFFSET -2.381303 0.000000 0.000000
                                        }
                                    }
                                }
                            }
                            JOINT RightHandIndex1
                            {
                                OFFSET -7.583345 0.000000 2.949078
                                CHANNELS 3 Zrotation Xrotation Yrotation
                                JOINT RightHandIndex2
                                {
                                    OFFSET -4.454682 0.000000 0.000000
                                    CHANNELS 3 Zrotation Xrotation Yrotation
                                    JOINT RightHandIndex3
                                    {
                                        OFFSET -2.227341 0.000000 0.000000
                                        CHANNELS 3 Zrotation Xrotation Yrotation
                                        End Site
                                        {
                                            OFFSET -1.984419 0.000000 0.000000
                                        }
                                    }
                                }
                            }
                            JOINT RightHandMiddle1
                            {
                                OFFSET -7.583345 0.000000 0.977409
                                CHANNELS 3 Zrotation Xrotation Yrotation
                                JOINT RightHandMiddle2
                                {
                                    OFFSET -4.900151 0.000000 0.000000
                                    CHANNELS 3 Zrotation Xrotation Yrotation
                                    JOINT RightHandMiddle3
                                    {
                                        OFFSET -2.672809 0.000000 0.000000
                                        CHANNELS 3 Zrotation Xrotation Yrotation
                                        End Site
                                        {
                                            OFFSET -2.381303 0.000000 0.000000
                                        }
                                    }
                                }
                            }
                            JOINT RightHandRing1
                            {
                                OFFSET -7.162047 0.000000 -0.977409
                                CHANNELS 3 Zrotation Xrotation Yrotation
                                JOINT RightHandRing2
                                {
                                    OFFSET -4.454682 0.000000 0.000000
                                    CHANNELS 3 Zrotation Xrotation Yrotation
                                    JOINT RightHandRing3
                                    {
                                        OFFSET -2.227341 0.000000 0.000000
                                        CHANNELS 3 Zrotation Xrotation Yrotation
                                        End Site
                                        {
                                            OFFSET -1.984419 0.000000 0.000000
                                        }
                                    }
                                }
                            }
                            JOINT RightHandPinky1
                            {
                                OFFSET -6.740750 0.000000 -2.949078
                                CHANNELS 3 Zrotation Xrotation Yrotation
                                JOINT RightHandPinky2
                                {
                                    OFFSET -3.563746 0.000000 0.000000
                                    CHANNELS 3 Zrotation Xrotation Yrotation
                                    JOINT RightHandPinky3
                                    {
                                        OFFSET -1.781873 0.000000 0.000000
                                        CHANNELS 3 Zrotation Xrotation Yrotation
                                        End Site
                                        {
                                            OFFSET -1.587536 0.000000 0.000000
                                        }
                                    }
                                }
                            }
                        }
                    }
                }
            }
        }
    }
    JOINT LeftUpLeg
    {
        OFFSET 8.909365 0.000000 0.000000
        CHANNELS 3 Zrotation Xrotation Yrotation
        JOINT LeftLeg
        {
            OFFSET -0.000000 -38.765560 0.000000
            CHANNELS 3 Zrotation Xrotation Yrotation
            JOINT LeftFoot
            {
                OFFSET -0.000000 -35.244961 0.000000
                CHANNELS 3 Zrotation Xrotation Yrotation
                JOINT LeftToeBase
                {
                    OFFSET -0.000000 -5.791087 13.364048
                    CHANNELS 3 Zrotation Xrotation Yrotation
                    End Site
                    {
                        OFFSET -0.000000 0.000000 3.563746
                    }
                }
            }
        }
    }
    JOINT RightUpLeg
    {
        OFFSET -8.909365 0.000000 0.000000
        CHANNELS 3 Zrotation Xrotation Yrotation
        JOINT RightLeg
        {
            OFFSET -0.000000 -38.765560 0.000000
            CHANNELS 3 Zrotation Xrotation Yrotation
            JOINT RightFoot
            {
                OFFSET -0.000000 -35.244961 0.000000
                CHANNELS 3 Zrotation Xrotation Yrotation
                JOINT RightToeBase
                {
                    OFFSET -0.000000 -5.791087 13.364048
                    CHANNELS 3 Zrotation Xrotation Yrotation
                    End Site
                    {
                        OFFSET -0.000000 0.000000 3.563746
                    }
                }
            }
        }
    }
}
MOTION
Frames:    4
Frame Time:    0.008333
-0.188517    78.700439    109.828651    3.950778    -4.966849    -15.496818    7.780606    -0.252439    6.140319    -19.297991    7.591238    3.338909    -1.845254    9.785850    1.371727    12.606198    -10.387185    0.524818    20.880856    0.042102    -5.291849    -7.481898    -4.929583    1.525809    5.407320    -7.685922    -3.523774    -5.143581    -18.872942    24.745564    -6.847615    -1.848835    -11.297544    0.000000    0.000000    0.000000    0.000000    0.000000    0.000000    -3.501181    0.000000    0.000000    -7.002361    0.000000    0.000000    -3.501181    0.000000    0.000000    -18.280031    -5.241609    7.698676    -37.806767    0.000000    0.000000    -18.903381    0.000000    0.000000    -32.465698    -12.239886    13.907027    -68.611160    0.000000    0.000000    -34.305576    0.000000    0.000000    -46.763069    -20.781120    18.449160    -100.349022    0.000000    0.000000    -50.174511    0.000000    0.000000    -20.755686    -2.077007    -0.142240    6.482198    20.283859    23.762911    -61.192722    -47.770260    75.669357    14.004013    -36.163746    29.084919    1.159504    0.684573    -0.345237    0.000000    0.000000    -1.950250    0.000000    0.000000    -3.900501    3.358031    0.207232    3.527336    6.728824    0.000000    -0.000000    3.364412    0.000000    -0.000000    9.461162    -0.033540    1.292516    18.919498    0.000000    -0.000000    9.459749    0.000000    -0.000000    15.550477    -0.510312    -0.904118    31.110170    0.000000    -0.000000    15.555089    0.000000    -0.000000    21.801508    -1.241946    -3.101574    43.670261    0.000000    -0.000000    21.835131    0.000000    -0.000000    -6.000075    -7.442620    4.529006    -4.295639    32.509388    14.992364    -2.402462    -22.257120    -2.098095    0.212759    0.145247    -0.508836    -0.760394    -12.714155    8.999146    -1.110639    40.697414    -1.362908    1.802503    -23.949034    8.223601    -0.631321    -1.038695    0.895305    
-0.225064    78.633400    109.889946    3.872514    -5.476949    -14.506565    7.567928    -0.676347    6.006757    -19.048634    8.950106    3.497648    -1.268014    9.948855    0.910972    12.219782    -10.844781    0.238148    21.002975    -0.402340    -6.082690    -7.704662    -5.362564    0.968353    6.506925    -12.501259    -5.194791    -0.804452    -23.417761    28.210472    -6.325634    -1.068795    -9.634315    0.000000    0.000000    0.000000    0.000000    0.000000    0.000000    -0.780093    0.000000    0.000000    -1.560185    0.000000    0.000000    -0.780093    0.000000    0.000000    -15.456728    -4.270263    7.080449    -31.861439    0.000000    0.000000    -15.930719    0.000000    0.000000    -29.662872    -10.170442    12.914139    -62.162678    0.000000    0.000000    -31.081341    0.000000    0.000000    -44.000217    -17.529718    17.322687    -93.382133    0.000000    0.000000    -46.691067    0.000000    0.000000    -21.063448    -1.677791    -0.049866    4.627996    20.438435    24.173889    -68.531853    -43.358170    67.753349    4.475917    -35.452381    26.482155    0.325075    0.902202    -1.226418    0.000000    0.000000    -2.693406    0.000000    0.000000    -5.386813    1.840581    0.079157    2.461720    3.684563    0.000000    -0.000000    1.842282    0.000000    -0.000000    7.768914    -0.180697    0.347192    15.538409    0.000000    -0.000000    7.769204    0.000000    -0.000000    13.683931    -0.657341    -1.729298    27.392242    0.000000    -0.000000    13.696125    0.000000    -0.000000    19.757158    -1.369154    -3.805942    39.605297    0.000000    -0.000000    19.802649    0.000000    -0.000000    -6.045656    -7.048256    4.133658    -4.202927    32.894127    14.516394    -2.346227    -22.395117    -2.152323    0.209773    0.108019    -0.506260    -0.930350    -12.136612    8.451824    -0.875255    40.989643    -1.910241    1.812506    -24.220211    8.205555    -0.632624    -1.024428    0.898733    
-0.262953    78.567352    109.946266    3.787004    -5.995062    -13.467333    7.310229    -1.076621    5.853922    -18.735910    10.296320    3.637453    -0.598696    10.110132    0.415215    11.773488    -11.303255    -0.063582    21.137278    -0.854459    -6.874771    -8.056679    -5.801675    0.405503    7.563113    -17.444155    -7.098827    4.070991    -27.841040    31.977140    -5.961767    -0.207479    -8.086775    0.000000    0.000000    0.000000    0.000000    0.000000    0.000000    1.359698    -0.001818    -0.076595    0.000000    0.000000    0.000000    0.000000    0.000000    0.000000    -13.137488    -3.541279    6.499146    -28.833069    0.000000    0.000000    -14.416534    0.000000    0.000000    -27.253151    -8.595543    12.024463    -57.666126    0.000000    0.000000    -28.833063    0.000000    0.000000    -41.518143    -15.030300    16.327000    -87.372917    0.000000    0.000000    -43.686462    0.000000    0.000000    -21.348398    -1.245639    0.009272    2.754020    20.333391    24.606852    -74.298576    -37.568642    61.153503    -4.886884    -34.798370    24.107056    -0.153337    1.233981    -2.051406    0.000000    0.000000    -3.405404    0.000000    0.000000    -6.810808    0.685639    0.017226    1.439160    1.371711    0.000000    -0.000000    0.685855    0.000000    -0.000000    6.434800    -0.299152    -0.685636    12.878808    0.000000    -0.000000    6.439404    0.000000    -0.000000    12.168728    -0.826533    -2.768215    24.385900    0.000000    -0.000000    12.192950    0.000000    -0.000000    18.053776    -1.584287    -4.848184    36.241695    0.000000    -0.000000    18.120848    0.000000    -0.000000    -6.070458    -6.656993    3.717486    -4.097262    33.298958    14.004931    -2.285780    -22.533056    -2.202081    0.205400    0.067665    -0.500653    -1.082751    -11.537664    7.884544    -0.614285    41.266098    -2.500890    1.823027    -24.475296    8.187774    -0.633768    -1.011537    0.901775    
-0.301443    78.501930    109.996208    3.693984    -6.515916    -12.379438    7.010530    -1.441795    5.684733    -18.357761    11.608791    3.753876    0.158587    10.267586    -0.115917    11.271022    -11.760482    -0.383034    21.284548    -1.320422    -7.669941    -8.549428    -6.246809    -0.179142    8.517622    -22.366791    -9.271857    9.408773    -31.945944    35.942993    -5.721051    0.674840    -6.668730    0.000000    0.000000    0.000000    0.000000    0.000000    0.000000    2.996746    -0.095441    -1.822495    0.000000    0.000000    0.000000    0.000000    0.000000    0.000000    -11.306943    -2.954297    4.936115    -27.157234    0.000000    0.000000    -13.578616    0.000000    0.000000    -25.260687    -7.376721    10.814030    -54.314461    0.000000    0.000000    -27.157234    0.000000    0.000000    -39.318554    -13.256463    15.641033    -82.294632    0.000000    0.000000    -41.147316    0.000000    0.000000    -21.605768    -0.795084    0.039823    0.885553    19.977507    25.026936    -78.395180    -30.712420    55.995808    -13.964281    -34.195713    21.749342    -0.251165    1.650723    -2.775229    0.000000    0.000000    -4.064870    0.000000    0.000000    -8.129741    -0.134163    -0.001432    0.611656    0.000000    0.000000    0.000000    0.000000    0.000000    0.000000    5.415439    -0.386527    -1.662807    11.031783    0.000000    -0.000000    5.515892    0.000000    -0.000000    10.945998    -0.989428    -3.889615    22.063564    0.000000    -0.000000    11.031786    0.000000    -0.000000    16.617018    -1.831541    -6.112778    33.429649    0.000000    -0.000000    16.714823    0.000000    -0.000000    -6.072209    -6.277192    3.284478    -3.975069    33.726921    13.453460    -2.221194    -22.670710    -2.249383    0.199482    0.024416    -0.491584    -1.214983    -10.925248    7.295350    -0.327138    41.527660    -3.132387    1.832304    -24.709816    8.168409    -0.634711    -1.002872    0.904097    
